#N canvas 521 68 709 689 10;
#N canvas 472 250 450 300 stereo_crossfade 0;
#X obj 47 87 inlet~;
#X obj 179 87 inlet~;
#X obj 47 198 outlet~;
#X obj 311 87 inlet;
#X obj 311 127 vline~;
#X obj 179 133 -~;
#X obj 179 158 *~;
#X obj 107 87 inlet~;
#X obj 241 87 inlet~;
#X obj 241 133 -~;
#X obj 241 159 *~;
#X obj 107 198 outlet~;
#X connect 0 0 5 1;
#X connect 0 0 2 0;
#X connect 1 0 5 0;
#X connect 3 0 4 0;
#X connect 4 0 6 1;
#X connect 4 0 10 1;
#X connect 5 0 6 0;
#X connect 6 0 2 0;
#X connect 7 0 9 1;
#X connect 7 0 11 0;
#X connect 8 0 9 0;
#X connect 9 0 10 0;
#X connect 10 0 11 0;
#X restore 21 396 pd stereo_crossfade;
#X obj 132 367 clip 0 1;
#X text 196 367 Dry-Wet Mix \, 0-1 \, init 1 (100% processed signal)
;
#N canvas 0 23 436 346 MIT 0;
#X text 19 25 Copyright 2020 Tobias Hartmann Permission is hereby granted
\, free of charge \, to any person obtaining a copy of this software
and associated documentation files (the "Software") \, to deal in the
Software without restriction \, including without limitation the rights
to use \, copy \, modify \, merge \, publish \, distribute \, sublicense
\, and/or sell copies of the Software \, and to permit persons to whom
the Software is furnished to do so \, subject to the following conditions:
The above copyright notice and this permission notice shall be included
in all copies or substantial portions of the Software. THE SOFTWARE
IS PROVIDED "AS IS" \, WITHOUT WARRANTY OF ANY KIND \, EXPRESS OR IMPLIED
\, INCLUDING BUT NOT LIMITED TO THE WARRANTIES OF MERCHANTABILITY \,
FITNESS FOR A PARTICULAR PURPOSE AND NONINFRINGEMENT. IN NO EVENT SHALL
THE AUTHORS OR COPYRIGHT HOLDERS BE LIABLE FOR ANY CLAIM \, DAMAGES
OR OTHER LIABILITY \, WHETHER IN AN ACTION OF CONTRACT \, TORT OR OTHERWISE
\, ARISING FROM \, OUT OF OR IN CONNECTION WITH THE SOFTWARE OR THE
USE OR OTHER DEALINGS IN THE SOFTWARE.;
#X restore 487 74 pd MIT license;
#X obj 21 218 adc~ 1 2;
#X obj 21 427 dac~ 1 2;
#X obj 76 277 delay-engine;
#X obj 166 75 bng 15 96 10 0 s-tap r-tap empty 17 7 0 10 -228856 -258113
-1;
#X obj 487 96 param.change;
#X obj 33 15 hsl 128 15 0 1 0 0 \$0-s-in-vol \$0-r-in-vol empty -2
-8 0 10 -228856 -1 -1 0 1;
#X obj 166 15 nbx 5 15 0 1 0 0 \$0-s-in-vol-box \$0-r-in-vol-box empty
0 -8 0 10 -228856 -1 -1 0 256;
#N canvas 685 23 953 991 parameters 0;
#X msg 34 44 set \$1;
#X obj 34 23 r \$0-s-in-vol;
#X obj 34 65 s \$0-r-in-vol-box;
#X obj 164 23 r \$0-s-in-vol-box;
#X obj 164 44 s \$0-r-in-vol;
#X msg 471 69 set \$1;
#X obj 481 90 s \$0-r-in-vol-box;
#X obj 461 132 s in-vol;
#X obj 461 44 change;
#X msg 34 184 set \$1;
#X msg 471 209 set \$1;
#X obj 461 184 change;
#X obj 34 163 r \$0-s-dry-wet;
#X obj 34 205 s \$0-r-dry-wet-box;
#X obj 164 163 r \$0-s-dry-wet-box;
#X obj 164 184 s \$0-r-dry-wet;
#X obj 481 230 s \$0-r-dry-wet-box;
#X obj 471 250 s \$0-r-dry-wet;
#X obj 461 272 s dry-wet;
#X msg 34 324 set \$1;
#X msg 471 349 set \$1;
#X obj 461 324 change;
#X obj 34 303 r \$0-s-feedback;
#X obj 34 345 s \$0-r-feedback-box;
#X obj 164 303 r \$0-s-feedback-box;
#X obj 164 324 s \$0-r-feedback;
#X obj 481 370 s \$0-r-feedback-box;
#X obj 471 390 s \$0-r-feedback;
#X obj 461 412 s feedback;
#X msg 481 489 set \$1;
#X obj 471 464 change;
#X obj 471 110 s \$0-r-in-vol;
#X msg 34 584 set \$1;
#X msg 471 609 set \$1;
#X obj 461 584 change;
#X msg 34 714 set \$1;
#X msg 471 749 set \$1;
#X obj 461 724 change;
#X obj 461 812 s lop;
#X obj 461 856 change;
#X msg 481 877 set \$1;
#X obj 461 926 s mode;
#X obj 34 563 r \$0-s-hip;
#X obj 34 605 s \$0-r-hip-box;
#X obj 164 563 r \$0-s-hip-box;
#X obj 164 584 s \$0-r-hip;
#X obj 481 510 s \$0-r-del-time-box;
#X obj 481 630 s \$0-r-hip-box;
#X obj 471 650 s \$0-r-hip;
#X obj 471 535 s del-time-send;
#X obj 461 672 s hip;
#X obj 34 693 r \$0-s-lop;
#X obj 34 735 s \$0-r-lop-box;
#X obj 164 693 r \$0-s-lop-box;
#X obj 164 714 s \$0-r-lop;
#X obj 481 770 s \$0-r-lop-box;
#X obj 471 790 s \$0-r-lop;
#X obj 481 898 s \$0-r-mode;
#X obj 287 23 param.set 1 \$0-s-in-vol;
#X obj 287 163 param.set 2 \$0-s-dry-wet;
#X obj 288 303 param.set 3 \$0-s-feedback;
#X obj 284 561 param.set 5 \$0-s-hip;
#X obj 275 691 param.set 6 \$0-s-lop;
#X obj 461 22 param.get 1;
#X obj 461 162 param.get 2;
#X obj 461 304 param.get 3;
#X obj 471 443 param.get 4;
#X obj 461 563 param.get 5;
#X obj 461 699 param.get 6;
#X obj 461 835 param.get 7;
#X obj 287 443 param.set 4 \$0-s-del-time-box;
#X obj 572 835 param.set 8 \$0-s-freetime;
#X obj 731 856 change;
#X msg 751 877 set \$1;
#X obj 731 835 param.get 8;
#X obj 751 898 s \$0-r-freetime;
#X obj 731 946 s freetime;
#X obj 731 924 m_scale 0 1 1 2000 2.8;
#X obj 275 835 param.set 7 \$0-s-mode;
#X connect 0 0 2 0;
#X connect 1 0 0 0;
#X connect 3 0 4 0;
#X connect 5 0 6 0;
#X connect 5 0 31 0;
#X connect 8 0 7 0;
#X connect 8 0 5 0;
#X connect 9 0 13 0;
#X connect 10 0 16 0;
#X connect 10 0 17 0;
#X connect 11 0 10 0;
#X connect 11 0 18 0;
#X connect 12 0 9 0;
#X connect 14 0 15 0;
#X connect 19 0 23 0;
#X connect 20 0 26 0;
#X connect 20 0 27 0;
#X connect 21 0 20 0;
#X connect 21 0 28 0;
#X connect 22 0 19 0;
#X connect 24 0 25 0;
#X connect 29 0 46 0;
#X connect 30 0 29 0;
#X connect 30 0 49 0;
#X connect 32 0 43 0;
#X connect 33 0 47 0;
#X connect 33 0 48 0;
#X connect 34 0 33 0;
#X connect 34 0 50 0;
#X connect 35 0 52 0;
#X connect 36 0 55 0;
#X connect 36 0 56 0;
#X connect 37 0 36 0;
#X connect 37 0 38 0;
#X connect 39 0 40 0;
#X connect 39 0 41 0;
#X connect 40 0 57 0;
#X connect 42 0 32 0;
#X connect 44 0 45 0;
#X connect 51 0 35 0;
#X connect 53 0 54 0;
#X connect 63 0 8 0;
#X connect 64 0 11 0;
#X connect 65 0 21 0;
#X connect 66 0 30 0;
#X connect 67 0 34 0;
#X connect 68 0 37 0;
#X connect 69 0 39 0;
#X connect 72 0 73 0;
#X connect 72 0 77 0;
#X connect 73 0 75 0;
#X connect 74 0 72 0;
#X connect 77 0 76 0;
#X restore 487 117 pd parameters;
#X obj 33 35 hsl 128 15 0 1 0 0 \$0-s-dry-wet \$0-r-dry-wet empty -2
-8 0 10 -228856 -1 -1 0 1;
#X obj 166 35 nbx 5 15 0 1 0 0 \$0-s-dry-wet-box \$0-r-dry-wet-box
empty 0 -8 0 10 -228856 -1 -1 0 256;
#X obj 132 345 r dry-wet;
#X text 224 35 Dry-Wet Mix;
#X obj 33 55 hsl 128 15 0 1 0 0 \$0-s-feedback \$0-r-feedback empty
-2 -8 0 10 -228856 -1 -1 0 1;
#X obj 166 55 nbx 5 15 0 1 0 0 \$0-s-feedback-box \$0-r-feedback-box
empty 0 -8 0 10 -228856 -1 -1 0 256;
#X text 224 55 Feedback;
#X obj 226 75 nbx 5 15 0 127 0 0 \$0-s-del-time-box \$0-r-del-time-box
empty 0 -8 0 10 -99865 -228856 -1 0 256;
#X obj 33 95 hsl 128 15 0 1 0 0 \$0-s-hip \$0-r-hip empty -2 -8 0 10
-228856 -1 -1 0 1;
#X obj 166 95 nbx 5 15 0 1 0 0 \$0-s-hip-box \$0-r-hip-box empty 0
-8 0 10 -228856 -1 -1 0 256;
#X obj 33 115 hsl 128 15 0 1 0 0 \$0-s-lop \$0-r-lop empty -2 -8 0
10 -228856 -1 -1 0 1;
#X obj 166 115 nbx 5 15 0 1 0 0 \$0-s-lop-box \$0-r-lop-box empty 0
-8 0 10 -228856 -1 -1 0 256;
#X text 224 15 Input Volume;
#X text 224 95 Hi-Pass Filter;
#X text 224 115 Lo-Pass Filter;
#X obj 33 75 hsl 128 15 0 1 0 0 \$0-s-freetime \$0-r-freetime 1ms-2000ms
33 8 0 10 -228856 -1 -1 0 1;
#X text 284 75 Time (0-127);
#X text 420 95 BPM;
#X text 420 77 ms;
#X floatatom 374 75 7 0 0 0 - r_del_ms_monitor s_del_ms_monitor;
#X floatatom 374 95 7 0 0 0 - r_del_bpm_monitor s_del_bpm_monitor;
#X obj 374 115 tgl 15 0 s-sync-onoff r-sync-onoff empty 19 7 0 10 -262144
-1 -1 0 1;
#X text 391 115 DAW-Sync;
#X text 183 75 TAP;
#X symbolatom 374 135 13 0 0 0 - r-status s-status;
#X obj 21 455 r \$0-s-freetime;
#X msg 21 476 symbol Milliseconds;
#X msg 41 542 symbol TAP-Tempo;
#X obj 21 633 s r-status;
#X obj 41 521 r s-tap;
#X obj 185 450 r \$0-s-del-time-box;
#X obj 185 471 moses 68;
#X msg 185 580 symbol Chromatic;
#X obj 230 496 moses 121;
#X msg 230 560 symbol Milliseconds;
#N canvas 0 23 450 300 sync-message-gui 0;
#X obj 30 23 inlet;
#X obj 30 48 sel 121 122 123 124 125 126 127;
#X msg 30 210 symbol 4th;
#X obj 30 258 outlet;
#X msg 70 170 symbol 8th;
#X msg 110 130 symbol 16th;
#X msg 130 110 symbol 16th-Tripl.;
#X msg 90 150 symbol 8th-Tripl.;
#X msg 50 190 symbol 4th-Tripl.;
#X msg 160 90 symbol 32th;
#X connect 0 0 1 0;
#X connect 1 0 2 0;
#X connect 1 1 8 0;
#X connect 1 2 4 0;
#X connect 1 3 7 0;
#X connect 1 4 5 0;
#X connect 1 5 6 0;
#X connect 1 6 9 0;
#X connect 2 0 3 0;
#X connect 4 0 3 0;
#X connect 5 0 3 0;
#X connect 6 0 3 0;
#X connect 7 0 3 0;
#X connect 8 0 3 0;
#X connect 9 0 3 0;
#X restore 281 521 pd sync-message-gui;
#X obj 30 135 hradio 15 1 0 4 \$0-s-mode \$0-r-mode empty 0 -8 0 10
-228856 -1 -1 0;
#X text 94 135 Delay Mode;
#X connect 0 0 5 0;
#X connect 0 1 5 1;
#X connect 1 0 0 4;
#X connect 4 0 0 0;
#X connect 4 0 6 0;
#X connect 4 1 0 1;
#X connect 4 1 6 1;
#X connect 6 0 0 2;
#X connect 6 1 0 3;
#X connect 14 0 1 0;
#X connect 37 0 38 0;
#X connect 38 0 40 0;
#X connect 39 0 40 0;
#X connect 41 0 39 0;
#X connect 42 0 43 0;
#X connect 43 0 44 0;
#X connect 43 1 45 0;
#X connect 44 0 40 0;
#X connect 45 0 46 0;
#X connect 45 1 47 0;
#X connect 46 0 40 0;
#X connect 47 0 40 0;
#X coords 0 -1 1 1 460 160 1 2 2;
