#N canvas 205 29 1043 988 10;
#X obj 31 30 inlet~;
#X obj 81 30 inlet~;
#X obj 29 526 line~;
#X obj 164 527 line~;
#X obj 313 873 s~ delay_l;
#X obj 382 852 s~ delay_r;
#X obj 111 231 r~ delay_l;
#X obj 288 229 r~ delay_r;
#X obj 29 548 delread4~ \$0_del_l;
#X obj 164 550 delread4~ \$0_del_r;
#X obj 206 256 expr~ (0.5*($v1 + $v2))* $f3;
#X obj 29 257 expr~ (0.5*($v1 + $v2))* $f3;
#X obj 468 606 * 1;
#X obj 493 578 t b f;
#N canvas 323 401 450 300 swap_del_l_r 0;
#X obj 35 31 inlet~;
#X obj 119 33 inlet~;
#X obj 215 30 inlet;
#X obj 40 247 outlet~;
#X obj 117 248 outlet~;
#X obj 41 213 *~;
#X obj 120 213 *~;
#X obj 151 214 *~;
#X obj 72 212 *~;
#X obj 215 51 sel 0 1;
#X msg 214 93 0 20;
#X msg 249 92 1 20;
#X msg 294 91 1 20;
#X msg 330 90 0 20;
#X obj 82 175 line~;
#X obj 166 171 line~;
#X obj 326 13 loadbang;
#X msg 326 34 0;
#X connect 0 0 5 0;
#X connect 0 0 8 0;
#X connect 1 0 6 0;
#X connect 1 0 7 0;
#X connect 2 0 9 0;
#X connect 5 0 3 0;
#X connect 6 0 4 0;
#X connect 7 0 3 0;
#X connect 8 0 4 0;
#X connect 9 0 10 0;
#X connect 9 0 11 0;
#X connect 9 1 12 0;
#X connect 9 1 13 0;
#X connect 10 0 15 0;
#X connect 11 0 14 0;
#X connect 12 0 15 0;
#X connect 13 0 14 0;
#X connect 14 0 5 1;
#X connect 14 0 6 1;
#X connect 15 0 8 1;
#X connect 15 0 7 1;
#X connect 16 0 17 0;
#X connect 17 0 9 0;
#X restore 277 675 pd swap_del_l_r;
#X msg 322 361 clear;
#X obj 29 863 outlet~;
#X obj 164 863 outlet~;
#X text 500 610 right channel offset;
#X obj 29 500 pack 0 500;
#X obj 164 501 pack 0 500;
#X obj 29 317 hip~ 10;
#X obj 206 316 hip~ 10;
#X obj 194 465 t f f;
#X obj 29 803 clip~ -1 1;
#X obj 164 803 clip~ -1 1;
#N canvas 649 173 308 345 del_stereo_mode_switcher 0;
#X obj 32 27 inlet;
#X obj 32 89 change;
#X msg 32 164 0 1;
#X obj 32 110 sel 0 1 2 3;
#X msg 128 165 1 2.01;
#X msg 69 163 1 1.012;
#X msg 188 165 1 3.01;
#X obj 32 235 outlet;
#X obj 152 48 m_scale 0 127 0 4;
#X obj 152 69 i;
#X connect 0 0 1 0;
#X connect 1 0 3 0;
#X connect 2 0 7 0;
#X connect 3 0 2 0;
#X connect 3 1 5 0;
#X connect 3 2 4 0;
#X connect 3 3 6 0;
#X connect 4 0 7 0;
#X connect 5 0 7 0;
#X connect 6 0 7 0;
#X connect 8 0 9 0;
#X restore 711 534 pd del_stereo_mode_switcher;
#X obj 194 442 r del_morph_time;
#X obj 29 387 delwrite~ \$0_del_l 2000;
#X obj 206 387 delwrite~ \$0_del_r 2000;
#X obj 711 554 unpack f f;
#X obj 468 517 pack f 200;
#X obj 30 123 *~ 1;
#X obj 81 123 *~ 1;
#X text 794 553 values 0 1 2 3;
#X obj 382 768 sel 2 3;
#X msg 382 789 1;
#X msg 420 789 0;
#X obj 382 747 change;
#X obj 29 339 lop~ 8000;
#X obj 206 337 lop~ 8000;
#X floatatom 468 421 5 1 2000 2 del_time_any_1-2000_ms - -;
#X text 594 494 DELAY TIME HERE;
#N canvas 379 195 1282 815 delay_time_calc2 0;
#X obj 493 31 inlet;
#X obj 272 587 expr 60000/$f1;
#X obj 221 745 s del_morph_time;
#X obj 491 350 mtof;
#X obj 491 373 expr 1000 / $f1;
#X obj 491 327 i;
#X obj 493 166 moses 68;
#X obj 491 306 m_scale 0 67 78 19;
#X obj 209 765 outlet;
#X obj 34 35 inlet;
#X obj 209 568 f;
#X obj 599 221 moses 121;
#X obj 599 455 m_scale 69 120 40.87 1200 3.4;
#X obj 171 77 r s_delay_tap_tempo;
#X text 563 168 ctrl in 0-67 tonal semitones 68 120 \, delay \, 121-127
rhythmic;
#X obj 33 289 spigot 1;
#X obj 491 509 spigot 1;
#X obj 322 78 r s_del_midi_temp;
#X obj 171 179 spigot 1;
#X obj 322 155 spigot 1;
#X msg 188 149 0, f 1;
#X msg 208 149 1, f 1;
#X msg 677 255 0, f 1;
#X msg 697 255 1, f 1;
#X msg 445 241 0, f 1;
#X msg 465 241 1, f 1;
#X obj 34 209 t f b;
#X msg 65 247 0, f 1;
#X msg 88 247 1, f 1;
#X text 268 767 delay time in ms;
#X obj 261 367 expr int($f1*10)/10;
#X text 307 390 round bpm to 0.1;
#N canvas 305 23 624 1005 \$0-tap_tempo_7 0;
#X obj 104 180 f \$0;
#X msg 104 200 \; \$1-taps const 0 \;;
#X msg 47 183 0;
#X obj 28 626 t b f b;
#X obj 140 643 f;
#X obj 170 643 + 1;
#X obj 47 666 tabwrite \$0-taps;
#X obj 88 925 outlet;
#X obj 28 293 sel 0 1;
#X obj 68 333 timer;
#X obj 28 333 timer;
#X obj 28 243 f;
#X obj 58 243 + 1;
#X obj 58 263 mod 2;
#X obj 47 203 t f f;
#X obj 28 413 spigot;
#X msg 61 384 0;
#X obj 28 363 t b f;
#X msg 28 383 1;
#X obj 47 163 t b b b;
#X obj 28 26 inlet;
#X obj 158 788 != 0;
#X obj 269 200 table \$0-taps 7;
#X obj 61 476 pack f 0;
#X obj 61 516 -;
#X obj 61 536 abs;
#X obj 61 496 t a f;
#X text 91 515 get the difference between the last 2 taps;
#X obj 57 133 r \$0-reset;
#X obj 28 606 spigot;
#X obj 61 576 t f f;
#X obj 88 601 sel 0;
#X obj 88 622 s \$0-reset;
#X text 91 535 make absolute;
#X obj 28 433 t f f f;
#X obj 170 663 mod 7;
#X text 111 555 if the gap is big 1 \, otherwise 0;
#X obj 28 63 t b b b;
#X msg 67 83 stop;
#X text 260 58 tap tempo abstraction that averages the last 7 taps
and resets when there's a big jump or after 1.5 seconds have passed
since the last tap.;
#X obj 78 27 bng 15 250 50 0 empty empty empty 17 7 0 10 -262144 -1
-1;
#X obj 190 902 expr 60000 / $f1;
#X obj 190 928 outlet;
#X text 260 106 based on tap.tempo.pd from https://forum.pdpatchrepo.info/user/weightless
;
#X obj 47 113 del 2000;
#X obj 257 610 +;
#X obj 288 610 f;
#X msg 272 585 0;
#X obj 257 632 >= 2;
#X obj 61 556 <= 100;
#X obj 257 653 change;
#X obj 28 850 spigot;
#X text 298 631 Open Output only \, if tapping is quite nice in time
\; -);
#N canvas 1051 264 522 529 \$0-list-filter 0;
#X obj 86 33 inlet;
#X obj 275 52 inlet;
#X obj 151 352 outlet;
#X obj 169 268 outlet;
#X obj 326 250 list prepend;
#X obj 405 220 t a;
#X obj 86 58 route bang;
#X obj 86 83 b;
#X obj 151 84 t b a;
#X obj 151 124 list;
#X obj 275 111 select 0;
#X obj 326 133 b;
#X obj 326 209 list;
#X obj 169 244 t a a;
#X obj 151 317 list;
#X obj 151 155 t b a b b b;
#N canvas -14 92 717 552 \$0-list-drip 0;
#X obj 63 84 t a a;
#X obj 63 241 spigot;
#X obj 102 149 bang;
#X obj 102 168 1;
#X obj 223 149 route bang;
#X obj 183 150 bang;
#X obj 183 169 0;
#X obj 102 114 list split 2;
#X obj 232 379 list split;
#X obj 299 328 list length;
#X obj 299 350 >> 1;
#X obj 63 260 t a a a a;
#X obj 63 446 list split;
#X obj 130 398 list length;
#X obj 130 423 >> 1;
#X obj 31 19 inlet;
#X obj 290 175 outlet;
#X text 73 19 Copyright 2009 by Mathieu Bouchard;
#X obj 31 53 t b a;
#X obj 465 119 outlet;
#X text 520 121 signal end of list;
#X text 381 23 made compatible with [list-drip]: fbar 2009;
#X connect 0 0 1 0;
#X connect 0 1 7 0;
#X connect 1 0 11 0;
#X connect 2 0 3 0;
#X connect 3 0 1 1;
#X connect 4 1 16 0;
#X connect 5 0 6 0;
#X connect 6 0 1 1;
#X connect 7 0 2 0;
#X connect 7 2 4 0;
#X connect 7 2 5 0;
#X connect 8 0 0 0;
#X connect 9 0 10 0;
#X connect 10 0 8 1;
#X connect 11 0 12 0;
#X connect 11 1 13 0;
#X connect 11 2 8 0;
#X connect 11 3 9 0;
#X connect 12 1 0 0;
#X connect 13 0 14 0;
#X connect 14 0 12 1;
#X connect 15 0 18 0;
#X connect 18 0 19 0;
#X connect 18 1 0 0;
#X restore 169 215 pd \$0-list-drip;
#X connect 0 0 6 0;
#X connect 1 0 10 0;
#X connect 4 0 5 0;
#X connect 4 0 14 1;
#X connect 5 0 4 1;
#X connect 6 0 7 0;
#X connect 6 1 8 0;
#X connect 7 0 9 0;
#X connect 8 0 9 0;
#X connect 8 1 9 1;
#X connect 9 0 15 0;
#X connect 10 1 11 0;
#X connect 11 0 12 0;
#X connect 12 0 4 0;
#X connect 13 0 3 0;
#X connect 13 1 12 1;
#X connect 14 0 2 0;
#X connect 15 0 14 0;
#X connect 15 1 16 0;
#X connect 15 2 14 1;
#X connect 15 3 4 1;
#X connect 15 4 12 1;
#X connect 16 0 13 0;
#X restore 28 788 pd \$0-list-filter;
#N canvas 0 23 450 403 \$0-list-geometric-mean 0;
#X obj 42 46 inlet;
#X obj 42 314 outlet;
#X obj 61 141 route float;
#X obj 42 251 f;
#N canvas 425 298 450 300 count 0;
#X obj 133 59 b;
#X obj 133 35 inlet;
#X obj 183 35 inlet;
#X obj 164 111 + 1;
#X obj 133 133 outlet;
#X msg 183 71 1;
#X obj 133 110 f 1;
#X connect 0 0 6 0;
#X connect 1 0 0 0;
#X connect 2 0 5 0;
#X connect 3 0 6 1;
#X connect 5 0 6 1;
#X connect 6 0 3 0;
#X connect 6 0 4 0;
#X restore 137 203 pd count;
#X obj 61 166 t a b;
#X obj 42 82 t b a b b;
#X obj 137 230 pow -1;
#X obj 42 279 pow;
#N canvas 370 313 450 300 product 0;
#X obj 135 79 inlet;
#X obj 182 79 inlet;
#X obj 135 169 outlet;
#X obj 168 138 f;
#X obj 135 137 *;
#X obj 182 102 1;
#X connect 0 0 4 0;
#X connect 1 0 5 0;
#X connect 3 0 4 1;
#X connect 4 0 2 0;
#X connect 4 0 3 0;
#X connect 5 0 4 1;
#X restore 61 202 pd product;
#N canvas 0 23 694 537 \$0-list-drip 0;
#X obj 63 84 t a a;
#X obj 63 241 spigot;
#X obj 102 149 bang;
#X obj 102 168 1;
#X obj 223 149 route bang;
#X obj 183 150 bang;
#X obj 183 169 0;
#X obj 102 114 list split 2;
#X obj 232 379 list split;
#X obj 299 328 list length;
#X obj 299 350 >> 1;
#X obj 63 260 t a a a a;
#X obj 63 446 list split;
#X obj 130 398 list length;
#X obj 130 423 >> 1;
#X obj 31 19 inlet;
#X obj 290 175 outlet;
#X text 73 19 Copyright 2009 by Mathieu Bouchard;
#X obj 31 53 t b a;
#X obj 465 119 outlet;
#X text 520 121 signal end of list;
#X text 381 23 made compatible with [list-drip]: fbar 2009;
#X connect 0 0 1 0;
#X connect 0 1 7 0;
#X connect 1 0 11 0;
#X connect 2 0 3 0;
#X connect 3 0 1 1;
#X connect 4 1 16 0;
#X connect 5 0 6 0;
#X connect 6 0 1 1;
#X connect 7 0 2 0;
#X connect 7 2 4 0;
#X connect 7 2 5 0;
#X connect 8 0 0 0;
#X connect 9 0 10 0;
#X connect 10 0 8 1;
#X connect 11 0 12 0;
#X connect 11 1 13 0;
#X connect 11 2 8 0;
#X connect 11 3 9 0;
#X connect 12 1 0 0;
#X connect 13 0 14 0;
#X connect 14 0 12 1;
#X connect 15 0 18 0;
#X connect 18 0 19 0;
#X connect 18 1 0 0;
#X restore 61 115 pd \$0-list-drip;
#X connect 0 0 6 0;
#X connect 2 0 5 0;
#X connect 3 0 8 0;
#X connect 4 0 7 0;
#X connect 5 0 9 0;
#X connect 5 1 4 0;
#X connect 6 0 3 0;
#X connect 6 1 10 0;
#X connect 6 2 9 1;
#X connect 6 3 4 1;
#X connect 7 0 8 1;
#X connect 8 0 1 0;
#X connect 9 0 3 1;
#X connect 10 0 2 0;
#X restore 28 812 pd \$0-list-geometric-mean;
#X obj 27 903 bang;
#X obj 27 924 outlet;
#X text 83 949 Milliseconds;
#X text 23 947 BANG;
#X text 189 951 BPM;
#X text 262 142 ported and edited as pd vanilla abstractio by tobias
hartmann 2020;
#X msg 47 740 set \$1;
#N canvas 14 78 450 230 \$0-u_tabdump 0;
#X obj 36 41 inlet;
#X obj 36 106 symbol;
#N canvas 172 83 586 377 LICENSE-GPL 0;
#X text 57 88 This program is free software: you can redistribute it
and/or modify it under the terms of the GNU General Public License
as published by the Free Software Foundation \, either version 3 of
the License \, or (at your option) any later version.;
#X text 58 168 This program is distributed in the hope that it will
be useful \, but WITHOUT ANY WARRANTY \; without even the implied warranty
of MERCHANTABILITY or FITNESS FOR A PARTICULAR PURPOSE. See the GNU
General Public License for more details.;
#X text 57 261 You should have received a copy of the GNU General Public
License along with this program. If not \, see <http://www.gnu.org/licenses/>.
;
#X text 60 325 See the file LICENSE.txt for the full license text.
;
#X text 56 54 Copyright (C) 2013 \, Dan Wilcox <danomatika@gmail.com>
;
#X restore 259 101 pd LICENSE-GPL;
#X obj 76 173 outlet;
#X text 230 41 based on : zexy [tabdump];
#X obj 36 69 route set bang;
#N canvas 177 190 229 196 arg1 0;
#X obj 109 139 outlet;
#X obj 34 21 loadbang;
#X obj 34 49 t b b;
#X obj 34 75 symbol \$1;
#X obj 109 74 symbol;
#X obj 34 103 select symbol;
#X connect 1 0 2 0;
#X connect 2 0 3 0;
#X connect 2 1 4 0;
#X connect 3 0 5 0;
#X connect 4 0 5 1;
#X connect 5 1 0 0;
#X restore 127 107 pd arg1;
#X obj 76 145 array get;
#X connect 0 0 5 0;
#X connect 1 0 7 2;
#X connect 5 0 1 0;
#X connect 5 1 7 0;
#X connect 6 0 7 2;
#X connect 7 0 3 0;
#X restore 28 766 pd \$0-u_tabdump;
#X obj 47 719 symbol \$0-taps;
#X obj 47 698 loadbang;
#N canvas 453 59 453 454 \$0-once 0;
#X obj 34 59 inlet;
#X obj 91 103 t a b;
#X obj 136 137 f 1;
#X obj 91 201 t a b;
#X obj 91 244 outlet;
#X obj 207 56 inlet;
#X text 8 6 once;
#X text 64 7 only the first message passes through;
#X text 29 37 message in;
#X text 29 289 message out (only once);
#X text 203 36 anything to init once;
#X obj 34 80 route bang;
#X obj 34 110 t b b;
#X obj 34 202 t b b;
#X text 88 383 IEM KUG;
#X text 66 364 musil;
#X text 110 363 @;
#X text 122 364 iem.at;
#X text 71 393 Graz \, Austria;
#X text 102 336 @;
#X text 121 335 iem.at;
#X text 23 335 (c) zmoelnig;
#X obj 207 79 t b;
#X msg 207 102 1;
#X msg 151 235 0;
#X obj 91 174 spigot 1;
#X obj 34 170 spigot 1;
#X text 23 352 (c) Thomas Musil 2000 - 2018;
#X connect 0 0 11 0;
#X connect 1 0 25 0;
#X connect 1 1 2 0;
#X connect 2 0 25 1;
#X connect 2 0 26 1;
#X connect 3 0 4 0;
#X connect 3 1 24 0;
#X connect 5 0 22 0;
#X connect 11 0 12 0;
#X connect 11 1 1 0;
#X connect 12 0 26 0;
#X connect 12 1 2 0;
#X connect 13 0 4 0;
#X connect 13 1 24 0;
#X connect 22 0 23 0;
#X connect 23 0 2 1;
#X connect 24 0 2 1;
#X connect 25 0 3 0;
#X connect 26 0 13 0;
#X restore 67 454 pd \$0-once;
#X connect 0 0 1 0;
#X connect 2 0 14 0;
#X connect 3 0 62 0;
#X connect 3 1 6 0;
#X connect 3 2 4 0;
#X connect 4 0 6 1;
#X connect 4 0 5 0;
#X connect 5 0 35 0;
#X connect 8 0 9 0;
#X connect 8 0 10 1;
#X connect 8 1 9 1;
#X connect 8 1 10 0;
#X connect 9 0 17 0;
#X connect 10 0 17 0;
#X connect 11 0 12 0;
#X connect 11 0 8 0;
#X connect 12 0 13 0;
#X connect 13 0 11 1;
#X connect 14 0 11 1;
#X connect 14 1 4 1;
#X connect 15 0 34 0;
#X connect 16 0 15 1;
#X connect 16 0 65 1;
#X connect 17 0 18 0;
#X connect 17 1 15 0;
#X connect 18 0 15 1;
#X connect 19 0 2 0;
#X connect 19 1 16 0;
#X connect 19 2 0 0;
#X connect 20 0 37 0;
#X connect 21 0 53 1;
#X connect 23 0 26 0;
#X connect 24 0 25 0;
#X connect 25 0 49 0;
#X connect 26 0 24 0;
#X connect 26 1 23 1;
#X connect 28 0 19 0;
#X connect 29 0 3 0;
#X connect 30 0 29 1;
#X connect 30 1 31 0;
#X connect 31 0 32 0;
#X connect 31 0 47 0;
#X connect 31 1 45 0;
#X connect 34 0 29 0;
#X connect 34 1 23 0;
#X connect 34 2 65 0;
#X connect 35 0 4 1;
#X connect 37 0 11 0;
#X connect 37 1 44 0;
#X connect 37 2 38 0;
#X connect 38 0 44 0;
#X connect 40 0 37 0;
#X connect 41 0 42 0;
#X connect 44 0 19 0;
#X connect 45 0 46 0;
#X connect 45 0 48 0;
#X connect 46 0 45 1;
#X connect 47 0 45 1;
#X connect 48 0 50 0;
#X connect 49 0 30 0;
#X connect 50 0 51 1;
#X connect 51 0 7 0;
#X connect 51 0 41 0;
#X connect 51 0 55 0;
#X connect 53 0 54 0;
#X connect 53 1 21 0;
#X connect 54 0 51 0;
#X connect 55 0 56 0;
#X connect 61 0 62 0;
#X connect 62 0 53 0;
#X connect 63 0 61 0;
#X connect 64 0 63 0;
#X connect 65 0 23 1;
#X restore 212 294 pd \$0-tap_tempo_7;
#X text 279 275 tap tempo;
#X text 274 314 bang \, ms \, bpm outlets;
#X obj 996 272 r playhead;
#X obj 996 293 route playing bpm;
#X msg 1045 417 tempo \$1 permin;
#X obj 996 448 metro 1 120 permin;
#X obj 996 469 bng 15 250 50 0 empty empty empty 17 7 0 10 -262144
-1 -1;
#X obj 720 315 sel 121 122 123 124 125 126 127;
#N canvas 0 23 772 473 midi-realtime-sync-in 0;
#X msg 51 209 24;
#X msg 91 209 16;
#X msg 131 209 12;
#X msg 171 209 8;
#X msg 211 209 6;
#X msg 251 209 4;
#X msg 291 209 3;
#X obj 51 173 sel 121 122 123 124 125 126 127;
#X obj 373 49 midirealtimein;
#X obj 373 109 sel 248 250 252;
#X text 501 109 ppq start stop;
#X obj 402 217 + 1;
#X obj 373 218 f;
#X msg 412 180 0;
#X msg 407 147 0;
#X obj 373 267 mod 24;
#X obj 373 291 sel 0;
#X obj 478 200 sel 95;
#X text 424 293 send tap to delay;
#X text 491 47 MIDI Time input;
#X obj 373 331 s s_del_midi_temp;
#X text 440 148 reset counter on midi start stop;
#X connect 0 0 15 1;
#X connect 1 0 15 1;
#X connect 2 0 15 1;
#X connect 3 0 15 1;
#X connect 4 0 15 1;
#X connect 5 0 15 1;
#X connect 6 0 15 1;
#X connect 7 0 0 0;
#X connect 7 1 1 0;
#X connect 7 2 2 0;
#X connect 7 3 3 0;
#X connect 7 4 4 0;
#X connect 7 5 5 0;
#X connect 7 6 6 0;
#X connect 8 0 9 0;
#X connect 9 0 12 0;
#X connect 9 1 14 0;
#X connect 9 2 14 0;
#X connect 11 0 12 1;
#X connect 12 0 11 0;
#X connect 12 0 15 0;
#X connect 12 0 17 0;
#X connect 13 0 12 1;
#X connect 14 0 12 0;
#X connect 15 0 16 0;
#X connect 16 0 20 0;
#X connect 17 0 13 0;
#X restore 632 71 pd midi-realtime-sync-in;
#X obj 996 499 s s_del_midi_temp;
#X obj 996 314 change;
#X msg 720 342 1;
#X msg 760 342 1.5;
#X msg 800 342 2;
#X msg 840 342 3;
#X msg 880 342 4;
#X msg 920 342 6;
#X msg 960 342 8;
#X obj 1099 365 t b f;
#X obj 1045 314 change;
#X obj 1045 388 expr $f1 * $f2;
#X obj 1142 285 loadbang;
#X msg 1142 306 1;
#X obj 272 629 s r_del_bpm_monitor;
#X obj 262 692 s r_del_ms_monitor;
#X obj 637 403 s r-sync-onoff;
#X msg 637 375 0, f 1;
#X msg 657 375 1, f 1;
#X obj 272 608 expr int($f1*10)/10;
#X obj 262 671 expr int($f1*10)/10;
#X connect 0 0 6 0;
#X connect 1 0 61 0;
#X connect 3 0 4 0;
#X connect 4 0 16 0;
#X connect 5 0 3 0;
#X connect 6 0 7 0;
#X connect 6 0 25 0;
#X connect 6 0 24 0;
#X connect 6 1 11 0;
#X connect 7 0 5 0;
#X connect 9 0 26 0;
#X connect 10 0 8 0;
#X connect 10 0 1 0;
#X connect 10 0 2 0;
#X connect 10 0 62 0;
#X connect 11 0 12 0;
#X connect 11 0 25 0;
#X connect 11 0 24 0;
#X connect 11 0 59 0;
#X connect 11 1 22 0;
#X connect 11 1 23 0;
#X connect 11 1 40 0;
#X connect 11 1 60 0;
#X connect 12 0 16 0;
#X connect 13 0 18 0;
#X connect 13 0 20 0;
#X connect 13 0 21 0;
#X connect 15 0 10 0;
#X connect 16 0 10 0;
#X connect 17 0 19 0;
#X connect 18 0 32 0;
#X connect 19 0 32 0;
#X connect 20 0 19 1;
#X connect 21 0 18 1;
#X connect 22 0 18 1;
#X connect 23 0 19 1;
#X connect 24 0 19 1;
#X connect 24 0 18 1;
#X connect 25 0 16 1;
#X connect 26 0 15 0;
#X connect 26 1 27 0;
#X connect 26 1 28 0;
#X connect 27 0 18 1;
#X connect 27 0 19 1;
#X connect 27 0 16 1;
#X connect 28 0 15 1;
#X connect 30 0 10 0;
#X connect 32 1 30 0;
#X connect 35 0 36 0;
#X connect 36 0 43 0;
#X connect 36 1 52 0;
#X connect 37 0 38 0;
#X connect 38 0 39 0;
#X connect 39 0 42 0;
#X connect 40 0 44 0;
#X connect 40 1 45 0;
#X connect 40 2 46 0;
#X connect 40 3 47 0;
#X connect 40 4 48 0;
#X connect 40 5 49 0;
#X connect 40 6 50 0;
#X connect 43 0 38 0;
#X connect 44 0 53 0;
#X connect 45 0 53 0;
#X connect 46 0 53 0;
#X connect 47 0 53 0;
#X connect 48 0 53 0;
#X connect 49 0 53 0;
#X connect 50 0 53 0;
#X connect 51 0 53 0;
#X connect 51 1 53 1;
#X connect 52 0 51 0;
#X connect 53 0 37 0;
#X connect 54 0 55 0;
#X connect 55 0 53 0;
#X connect 59 0 58 0;
#X connect 60 0 58 0;
#X connect 61 0 56 0;
#X connect 62 0 57 0;
#X restore 468 493 pd delay_time_calc2;
#X obj 468 380 s s_delay_tap_tempo;
#X obj 468 539 line 0 5;
#N canvas 431 594 450 300 crossfade 0;
#X obj 76 87 inlet~;
#X obj 212 87 inlet~;
#X obj 77 198 outlet~;
#X obj 341 87 inlet;
#X obj 341 127 vline~;
#X obj 211 136 -~;
#X obj 211 156 *~;
#X obj 137 87 inlet~;
#X obj 272 87 inlet~;
#X obj 271 136 -~;
#X obj 271 156 *~;
#X obj 137 198 outlet~;
#X connect 0 0 5 1;
#X connect 0 0 2 0;
#X connect 1 0 5 0;
#X connect 3 0 4 0;
#X connect 4 0 6 1;
#X connect 4 0 10 1;
#X connect 5 0 6 0;
#X connect 6 0 2 0;
#X connect 7 0 9 1;
#X connect 7 0 11 0;
#X connect 8 0 9 0;
#X connect 9 0 10 0;
#X connect 10 0 11 0;
#X restore 313 826 pd crossfade;
#X obj 102 85 clip 0 1;
#X obj 371 186 m_scale 0 1 0 2.1 0.7;
#X obj 371 155 clip 0 1;
#X obj 371 134 r feedback;
#X obj 537 243 m_scale 0 1 10 5000 6;
#X obj 537 215 clip 0 1;
#X obj 537 194 r hip;
#X obj 537 296 clip 0 1;
#X obj 537 274 r lop;
#X obj 711 508 clip 0 3;
#X obj 102 64 r in-vol;
#X obj 579 464 clip 0 127;
#X obj 579 439 r del-time-send;
#X obj 711 484 r mode;
#X obj 538 320 m_scale 0 1 8000 20 0.5;
#X obj 468 353 r s-tap;
#X text 524 352 Delay Tap Input;
#X obj 479 441 r freetime;
#X text 628 411 ctrl in 0-67 tonal semitones 68 120 delay \, 121-127
rhythmic DAW Synced;
#X msg 787 737 0, f 1;
#X obj 787 758 s r-sync-onoff;
#X connect 0 0 32 0;
#X connect 1 0 33 0;
#X connect 2 0 8 0;
#X connect 3 0 9 0;
#X connect 6 0 11 1;
#X connect 7 0 10 1;
#X connect 8 0 14 0;
#X connect 8 0 24 0;
#X connect 8 0 46 0;
#X connect 9 0 14 1;
#X connect 9 0 25 0;
#X connect 9 0 46 1;
#X connect 10 0 22 0;
#X connect 11 0 21 0;
#X connect 12 0 20 0;
#X connect 13 0 12 0;
#X connect 13 1 12 1;
#X connect 14 0 46 2;
#X connect 14 1 46 3;
#X connect 15 0 28 0;
#X connect 15 0 29 0;
#X connect 19 0 2 0;
#X connect 20 0 3 0;
#X connect 21 0 39 0;
#X connect 22 0 40 0;
#X connect 23 0 19 1;
#X connect 23 1 20 1;
#X connect 24 0 16 0;
#X connect 25 0 17 0;
#X connect 26 0 30 0;
#X connect 27 0 23 0;
#X connect 30 0 14 2;
#X connect 30 1 13 0;
#X connect 31 0 45 0;
#X connect 32 0 11 0;
#X connect 33 0 10 0;
#X connect 35 0 36 0;
#X connect 35 1 36 0;
#X connect 35 2 37 0;
#X connect 36 0 46 4;
#X connect 37 0 46 4;
#X connect 38 0 35 0;
#X connect 39 0 28 0;
#X connect 40 0 29 0;
#X connect 41 0 43 0;
#X connect 43 0 31 0;
#X connect 45 0 12 0;
#X connect 45 0 19 0;
#X connect 46 0 4 0;
#X connect 46 1 5 0;
#X connect 47 0 33 1;
#X connect 47 0 32 1;
#X connect 48 0 10 2;
#X connect 48 0 11 2;
#X connect 49 0 48 0;
#X connect 50 0 49 0;
#X connect 51 0 22 1;
#X connect 51 0 21 1;
#X connect 52 0 51 0;
#X connect 53 0 52 0;
#X connect 54 0 61 0;
#X connect 55 0 54 0;
#X connect 56 0 26 0;
#X connect 56 0 38 0;
#X connect 57 0 47 0;
#X connect 58 0 43 1;
#X connect 59 0 58 0;
#X connect 60 0 56 0;
#X connect 61 0 39 1;
#X connect 61 0 40 1;
#X connect 62 0 44 0;
#X connect 62 0 66 0;
#X connect 64 0 43 0;
#X connect 64 0 66 0;
#X connect 66 0 67 0;
