#N canvas 97 475 571 405 10;
#X obj 76 87 inlet~;
#X obj 212 87 inlet~;
#X obj 77 198 outlet~;
#X obj 341 87 inlet;
#X obj 341 127 vline~;
#X obj 209 133 -~;
#X obj 211 156 *~;
#X obj 126 87 inlet~;
#X obj 272 87 inlet~;
#X obj 271 136 -~;
#X obj 271 156 *~;
#X obj 137 198 outlet~;
#X connect 0 0 5 1;
#X connect 0 0 2 0;
#X connect 1 0 5 0;
#X connect 3 0 4 0;
#X connect 4 0 6 1;
#X connect 4 0 10 1;
#X connect 5 0 6 0;
#X connect 6 0 2 0;
#X connect 7 0 9 1;
#X connect 7 0 11 0;
#X connect 8 0 9 0;
#X connect 9 0 10 0;
#X connect 10 0 11 0;
